<svg width="60" height="80" viewBox="0 0 60 80" fill="none" xmlns="http://www.w3.org/2000/svg">
<path d="M59.3239 29.2758L54.2379 23.6599L55.8277 16.2574C55.8958 15.9408 55.8444 15.6099 55.6831 15.3288C55.522 15.0477 55.2625 14.8361 54.9549 14.7349L47.7491 12.4085L45.4228 5.2027C45.3229 4.89317 45.1119 4.63149 44.8302 4.46882C44.5486 4.30613 44.2166 4.25363 43.8986 4.32171L36.4975 5.91148L30.8816 0.833752C30.6401 0.615275 30.3262 0.494141 30.0006 0.494141C29.6749 0.494141 29.361 0.615275 29.1196 0.833752L23.5037 5.91967L16.1012 4.3299C15.7845 4.26182 15.4537 4.31322 15.1725 4.47455C14.8915 4.63561 14.6798 4.8951 14.5786 5.20269L12.2523 12.4085L5.04646 14.7349C4.73692 14.8347 4.47524 15.0458 4.31257 15.3274C4.14988 15.609 4.09738 15.941 4.16546 16.259L5.75523 23.6615L0.677503 29.2757C0.459026 29.5172 0.337891 29.8311 0.337891 30.1568C0.337891 30.4824 0.459026 30.7963 0.677503 31.0378L5.76342 36.6537L4.17365 44.0562C4.10557 44.3728 4.15697 44.7037 4.3183 44.9848C4.47936 45.2659 4.73885 45.4775 5.04644 45.5787L12.2522 47.9035L12.5541 48.8419L3.97352 72.5621C3.85102 72.9047 3.87617 73.2832 4.04297 73.6066C4.21004 73.9298 4.50398 74.1694 4.85427 74.2678C5.20482 74.3662 5.58052 74.3148 5.89139 74.1256L14.633 68.7821L17.9273 78.4834C18.0143 78.7413 18.1794 78.9655 18.3996 79.1254C18.6197 79.2854 18.8841 79.3729 19.1562 79.3759H19.1726C19.4422 79.3759 19.7055 79.2925 19.9262 79.1375C20.1471 78.9827 20.3148 78.7634 20.4064 78.5097L27.7452 58.2313L29.1233 59.4782C29.3648 59.6967 29.6787 59.8178 30.0043 59.8178C30.33 59.8178 30.6439 59.6967 30.8854 59.4782L32.2635 58.2313L39.6023 78.5097C39.6937 78.7623 39.8602 78.9808 40.0798 79.1358C40.2993 79.2906 40.561 79.3745 40.8295 79.3759H40.8426C41.1144 79.3729 41.3789 79.2857 41.599 79.126C41.8191 78.9666 41.9843 78.7426 42.0715 78.485L45.3658 68.7837L54.1186 74.1256C54.4301 74.3156 54.8063 74.3673 55.1574 74.2686C55.5085 74.1699 55.8028 73.9295 55.9696 73.6052C56.1364 73.2809 56.1607 72.9017 56.0366 72.5588L47.4476 48.8435L47.7494 47.9051L54.9552 45.5787C55.2648 45.4789 55.5265 45.2678 55.6891 44.9862C55.8518 44.7045 55.9043 44.3726 55.8362 44.0545L54.2465 36.652L59.3324 31.0361C59.5495 30.7939 59.6687 30.4797 59.6671 30.1543C59.6657 29.8292 59.5435 29.5161 59.3242 29.2757L59.3239 29.2758ZM19.209 74.0975L16.5922 66.3863C16.4642 66.0084 16.1713 65.7093 15.7965 65.5734C15.4213 65.4375 15.0048 65.4793 14.6644 65.6874L7.71476 69.9366L13.8704 52.9203L14.5792 55.1106C14.679 55.4201 14.8901 55.6818 15.1717 55.8444C15.4533 56.0071 15.7853 56.0596 16.1033 55.9915L23.5058 54.4018L25.6387 56.3311L19.209 74.0975ZM52.2875 69.9385L45.3378 65.6893C44.9974 65.4812 44.581 65.4394 44.2058 65.5753C43.8309 65.7112 43.538 66.0103 43.4101 66.3882L40.7851 74.0994L34.3637 56.3313L36.4965 54.402L43.899 55.9917C44.217 56.0598 44.549 56.0073 44.8307 55.8446C45.1123 55.6819 45.3234 55.4202 45.4232 55.1107L46.1303 52.9221L52.2875 69.9385ZM51.8478 35.39C51.567 35.7015 51.4516 36.128 51.5377 36.5384L53.0143 43.4389L46.2976 45.6046C45.8956 45.7342 45.5806 46.0492 45.451 46.4511L44.8161 48.4199L43.2903 53.176L36.3898 51.6995C35.9769 51.6106 35.5463 51.726 35.2332 52.0095L30.0013 56.7345L24.7677 52.0014C24.4562 51.7205 24.0296 51.6051 23.6192 51.6913L16.7188 53.1679L15.1881 48.4182L14.5532 46.4495C14.4236 46.0475 14.1085 45.7325 13.7066 45.6029L6.98168 43.4455L8.45826 36.545C8.5444 36.1346 8.429 35.708 8.14818 35.3966L3.42318 30.1565L8.15637 24.9229C8.43719 24.6114 8.55259 24.1848 8.46645 23.7744L6.98987 16.874L13.7066 14.7083C14.1085 14.5787 14.4235 14.2637 14.5532 13.8617L16.7122 7.13683L23.6127 8.61341C24.0231 8.69955 24.4497 8.58416 24.7611 8.30333L30.0013 3.57833L35.2349 8.31152C35.5501 8.59699 35.9844 8.71211 36.3997 8.61996L43.3002 7.14338L45.4659 13.8601C45.5955 14.262 45.9105 14.577 46.3124 14.7067L53.021 16.8674L51.5444 23.7678C51.4583 24.1782 51.5736 24.6048 51.8545 24.9162L56.5795 30.1564L51.8478 35.39Z" fill="white"/>
<path d="M30.0013 11.126C24.7797 11.126 19.7722 13.2003 16.0797 16.8922C12.3878 20.5844 10.3135 25.5918 10.3135 30.8138C10.3135 36.0358 12.3878 41.0429 16.0797 44.7354C19.7719 48.4274 24.7793 50.5017 30.0013 50.5017C35.2233 50.5017 40.2304 48.4274 43.9229 44.7354C47.6149 41.0432 49.6892 36.0358 49.6892 30.8138C49.6834 25.5942 47.6075 20.5896 43.9166 16.8985C40.2257 13.2076 35.2212 11.1317 30.0013 11.126ZM30.0013 47.876C25.476 47.876 21.1365 46.0784 17.9361 42.8783C14.7361 39.6786 12.9385 35.3386 12.9385 30.8131C12.9385 26.2876 14.7361 21.9483 17.9361 18.7479C21.1359 15.5479 25.4758 13.7503 30.0013 13.7503C34.5268 13.7503 38.8661 15.5479 42.0665 18.7479C45.2666 21.9477 47.0642 26.2876 47.0642 30.8131C47.0595 35.3369 45.2603 39.6744 42.0613 42.8727C38.8627 46.0717 34.5251 47.8709 30.0017 47.8756L30.0013 47.876Z" fill="white"/>
<path d="M37.3376 21.0726L26.0634 32.2187L22.6641 28.857C22.1697 28.3728 21.5055 28.1018 20.8134 28.1018C20.1213 28.1018 19.4572 28.3728 18.9627 28.857L16.8759 30.916C16.3804 31.4044 16.1016 32.071 16.1016 32.7667C16.1016 33.4623 16.3805 34.129 16.8759 34.6173L24.2077 41.8658C24.7018 42.3504 25.3663 42.6219 26.0584 42.6219C26.7504 42.6219 27.4149 42.3504 27.909 41.8658L43.1256 26.8312C43.6211 26.3429 43.9 25.6762 43.9 24.9806C43.9 24.2849 43.6211 23.6183 43.1256 23.1299L41.0437 21.0726C40.5496 20.5861 39.8841 20.3135 39.1906 20.3135C38.4971 20.3135 37.8316 20.5861 37.3375 21.0726H37.3376ZM29.079 37.0242L26.0635 40.0003L18.7478 32.7686L20.8134 30.7244L25.1365 34.99C25.382 35.2326 25.7134 35.3685 26.0585 35.3685C26.4036 35.3685 26.735 35.2326 26.9805 34.99L39.1885 22.9381L38.2649 22.0046L41.264 24.979L29.079 37.0242Z" fill="white"/>
</svg>
