<svg width="83" height="87" viewBox="0 0 83 87" fill="none" xmlns="http://www.w3.org/2000/svg">
<path d="M12.6919 54.078H27.1522V39.8389H12.6919V54.078ZM14.9052 42.0526H24.9389V51.8651H14.9052V42.0526Z" fill="white"/>
<path d="M48.6951 39.8389H34.2349V54.078H48.6951V39.8389ZM46.4818 51.8643H36.4482V42.0518H46.4818V51.8643Z" fill="white"/>
<path d="M56.7368 54.078H71.1971V39.8389H56.7368V54.078ZM58.9501 42.0526H68.9838V51.8651H58.9501V42.0526Z" fill="white"/>
<path d="M12.6919 75.4755H27.1522V61.2363H12.6919V75.4755ZM14.9052 63.45H24.9389V73.2626H14.9052V63.45Z" fill="white"/>
<path d="M47.5879 69.2023C46.9976 69.2023 46.4812 69.7187 46.4812 70.3089V73.1862H36.4476V63.4476H45.7431C46.3333 63.4476 46.8497 62.9312 46.8497 62.341C46.8497 61.7508 46.3333 61.2344 45.7431 61.2344H34.2339V75.3995H48.6942V70.3089C48.6942 69.6449 48.2515 69.2023 47.5875 69.2023H47.5879Z" fill="white"/>
<path d="M82.999 8.70575H67.2844V4.79554C67.2844 2.13957 65.1448 0 62.4888 0C59.8329 0 57.6933 2.13957 57.6933 4.79554V8.70575H45.889V4.79554C45.889 2.13957 43.7494 0 41.0935 0C38.4375 0 36.2979 2.13957 36.2979 4.79554V8.70575H24.5676V4.79554C24.5676 2.13957 22.428 0 19.7721 0C17.1161 0 14.9765 2.13957 14.9765 4.79554V8.70575H0V86.8353H83L82.999 8.70575ZM59.8327 4.86935C59.8327 3.46763 61.0131 2.2872 62.4149 2.2872C63.8166 2.2872 64.997 3.46763 64.997 4.86935V8.77957H59.7589V4.86935H59.8327ZM38.511 4.86935C38.511 3.46763 39.6914 2.2872 41.0931 2.2872C42.4949 2.2872 43.6753 3.46763 43.6753 4.86935V8.77957H38.4372V4.86935H38.511ZM17.1153 4.86935C17.1153 3.46763 18.2957 2.2872 19.6974 2.2872C21.0992 2.2872 22.2796 3.46763 22.2796 4.86935V8.77957H17.0415V4.86935H17.1153ZM14.902 10.9191V15.7883C14.902 18.4443 17.0416 20.5839 19.6975 20.5839C20.2877 20.5839 20.8041 20.0674 20.8041 19.4773C20.8041 18.8871 20.2877 18.3706 19.6975 18.3706C18.2958 18.3706 17.1154 17.1902 17.1154 15.7885V10.9192H36.2234V15.7885C36.2234 18.4445 38.363 20.584 41.0189 20.584C41.6091 20.584 42.1255 20.0676 42.1255 19.4774C42.1255 18.8872 41.6091 18.3708 41.0189 18.3708C39.6172 18.3708 38.4368 17.1904 38.4368 15.7886V10.9194H57.5448V15.7886C57.5448 18.4446 59.6844 20.5842 62.3403 20.5842C62.9306 20.5842 63.4469 20.0677 63.4469 19.4776C63.4469 18.8874 62.9305 18.371 62.3403 18.371C60.9386 18.371 59.7582 17.1905 59.7582 15.7888V10.9195H80.7108V28.4049H2.21221V10.9195L14.902 10.9191ZM2.21236 84.6959V30.6913H80.785V84.6959H2.21236Z" fill="white"/>
<path d="M50.2445 61.0131L42.8668 68.3908L40.5797 66.1038C40.1371 65.6611 39.4731 65.6611 39.0304 66.1038C38.5876 66.5465 38.5877 67.2104 39.0304 67.6531L42.8668 71.4895L51.794 62.6363C52.2367 62.1937 52.2367 61.5297 51.794 61.087C51.3513 60.6442 50.6874 60.6443 50.2446 61.0132L50.2445 61.0131Z" fill="white"/>
</svg>
