<svg width="62" height="87" viewBox="0 0 62 87" fill="none" xmlns="http://www.w3.org/2000/svg">
<path d="M48.4007 46.2224C55.1142 39.3184 62 31.5487 62 25.1997C62 17.6057 55.822 11.4283 48.2286 11.4283C45.4295 11.4283 42.7783 12.2504 40.4962 13.8077C40.3057 13.3014 40.0884 12.8038 39.818 12.3303L41.1471 7.05435C43.0885 6.65298 44.5511 4.93127 44.5511 2.87407L44.5515 1.0816C44.5515 0.484465 44.0681 0 43.4699 0H18.366C17.7678 0 17.2844 0.484465 17.2844 1.0816V2.87263C17.2844 4.92983 18.7476 6.6529 20.6884 7.05291L22.0175 12.3288C21.7633 12.7746 21.5545 13.2386 21.3707 13.7122C19.1188 12.2141 16.5155 11.4269 13.7714 11.4269C6.17736 11.4269 0 17.6049 0 25.1983C0 31.4858 6.89518 40.4479 13.5488 46.4246C15.0131 48.9511 17.0295 51.1644 19.5148 52.8818L18.1705 58.5613H6.92194C6.32376 58.5613 5.84035 59.0458 5.84035 59.6429V65.3948C5.84035 65.992 6.32376 66.4764 6.92194 66.4764H7.65745V71.9288C7.65745 72.5259 8.14086 73.0104 8.73904 73.0104H11.786V85.4469C11.786 86.044 12.2694 86.5285 12.8676 86.5285C13.4658 86.5285 13.9492 86.044 13.9492 85.4469V73.0122H48.5161V85.4469C48.5161 86.044 48.9995 86.5285 49.5977 86.5285C50.1959 86.5285 50.6793 86.044 50.6793 85.4469V73.0122H53.0946C53.6928 73.0122 54.1762 72.5277 54.1762 71.9306V66.4782H54.9117C55.5099 66.4782 55.9933 65.9938 55.9933 65.3966V59.6447C55.9933 59.0476 55.5099 58.5631 54.9117 58.5631H43.664L42.3197 52.8837C44.8719 51.1207 46.9282 48.8343 48.4002 46.2233L48.4007 46.2224ZM15.3643 45.1471C15.3241 45.1115 15.2844 45.0756 15.2453 45.0401C13.8035 42.4347 13.0173 39.4697 13.0173 36.3764C13.0173 33.1781 13.8707 30.1181 15.4044 27.4532H46.4317C47.9654 30.1192 48.8188 33.1791 48.8188 36.3764C48.8188 39.4191 48.0562 42.3371 46.6599 44.9112C46.5821 44.99 46.5053 45.0692 46.4296 45.1471L15.3643 45.1471ZM38.0246 13.5978C38.6531 14.7692 39.0013 16.0649 39.0013 17.3932C39.0013 17.7696 38.9622 18.1558 38.9027 18.5463H22.932C22.8736 18.1559 22.8335 17.7696 22.8335 17.3932C22.8335 16.0595 23.1838 14.7596 23.8179 13.5827L38.0246 13.5978ZM22.273 20.7095H39.5605C41.6892 21.8851 43.5169 23.4491 44.9705 25.2901H16.8635C18.3172 23.4479 20.1448 21.8851 22.2735 20.7095H22.273ZM48.2277 13.5904C54.6286 13.5904 59.8359 18.7974 59.8359 25.1987C59.8359 29.8257 54.9458 36.0209 50.4594 40.917C50.7991 39.447 50.9819 37.9263 50.9819 36.3765C50.9819 29.2078 47.1864 22.6393 41.024 19.0439C41.1169 18.4869 41.1644 17.9342 41.1644 17.3934C41.1644 16.9456 41.1342 16.5002 41.0757 16.0597C43.134 14.4462 45.6042 13.5905 48.2282 13.5905L48.2277 13.5904ZM21.5519 4.9785C20.3914 4.9785 19.4471 4.03318 19.4471 2.87272V2.16327H42.3869V2.87272C42.3869 4.03318 41.4416 4.9785 40.2811 4.9785C39.7857 4.9785 39.3541 5.31579 39.2319 5.79603L37.8115 11.4353L24.0194 11.4202L22.6016 5.79603C22.4794 5.31509 22.0478 4.9785 21.5524 4.9785L21.5519 4.9785ZM2.1625 25.1989C2.1625 18.7981 7.36948 13.5907 13.7707 13.5907C16.3342 13.5907 18.7491 14.4118 20.7796 15.9539C20.7113 16.4299 20.6705 16.9091 20.6705 17.3936C20.6705 17.9344 20.718 18.4872 20.811 19.0431C14.6481 22.6383 10.8531 29.2056 10.8531 36.3766C10.8531 38.0962 11.0738 39.778 11.489 41.3952C6.40347 36.0168 2.16379 29.5977 2.16379 25.1983L2.1625 25.1989ZM16.7469 47.3104H45.0856C43.8396 48.9197 42.3133 50.3344 40.5343 51.4702H21.2981C19.52 50.3347 17.9938 48.9211 16.7467 47.3104H16.7469ZM52.0133 70.8477H9.8202V66.477H52.0133V70.8477ZM53.8293 64.3149H8.00294V60.7261H53.8293V64.3149ZM20.3917 58.5629L21.5588 53.6331H40.2732L41.4403 58.5629H20.3917Z" fill="white"/>
</svg>
