<svg width="101" height="124" viewBox="0 0 101 124" fill="none" xmlns="http://www.w3.org/2000/svg">
<path d="M44.5179 54.8566C45.1881 60.384 45.6907 66.0789 46.361 71.6063C46.8636 76.1287 49.2095 80.3161 50.8851 84.671C51.8904 87.1835 52.8957 89.5284 53.9011 92.0409C54.2362 92.7109 57.0847 91.2034 56.9172 90.3659C56.2469 84.8385 55.7442 79.1436 55.074 73.6162C54.5713 69.0938 52.2255 64.9064 50.5499 60.5515C49.5446 58.039 48.5392 55.6941 47.5339 53.1816C47.3663 52.5116 44.1827 54.0191 44.5179 54.8566C46.5286 60.049 48.7068 65.2414 50.7175 70.4338C52.3931 74.6212 52.3931 79.4786 52.8958 84.001C53.2309 86.681 53.3984 89.1935 53.7336 91.8734C54.7389 91.3709 55.7442 90.7009 56.7496 90.1984C54.7389 85.006 52.5606 79.8136 50.5499 74.6212C48.8743 70.4338 48.8744 65.5764 48.3717 61.054C48.0366 58.374 47.869 55.8616 47.5339 53.1816C47.5339 52.6791 44.3503 53.8516 44.5179 54.8566Z" fill="#49818A"/>
<path d="M70.3215 67.0837C64.6245 67.7537 58.9275 68.2562 53.2305 68.9262C48.5388 69.4287 44.3499 71.7736 39.9933 73.4486C37.4799 74.4536 34.9666 75.4585 32.4532 76.4635C32.1181 76.631 29.6047 78.306 30.61 78.1385C36.307 77.4685 42.004 76.966 47.701 76.296C52.3927 75.7935 56.5816 73.4486 60.9382 71.7736C63.4516 70.7686 65.9649 69.7636 68.4783 68.7587C68.981 68.5912 70.3215 68.0887 70.489 67.4187C70.6566 66.9162 70.1539 66.9162 69.6513 67.0837C64.4569 69.0936 59.2626 71.2711 54.0683 73.2811C53.398 73.6161 52.5602 73.7836 51.89 74.1186C51.89 74.1186 52.7278 73.9511 52.2251 73.9511C51.89 73.9511 51.3873 74.1186 51.0522 74.1186C47.701 74.4536 44.5174 74.7886 41.1663 75.1236C38.4853 75.4586 35.9719 75.626 33.291 75.961C32.6207 76.4635 32.1181 77.1335 31.4478 77.636C36.6421 75.626 41.8365 73.4486 47.0308 71.4386C47.7011 71.1036 48.5388 70.9361 49.2091 70.6011C49.2091 70.6011 48.3712 70.7686 48.8739 70.7686C49.209 70.7686 49.7117 70.6011 50.0469 70.6011C53.398 70.2661 56.5816 69.9311 59.9328 69.5961C62.6138 69.2611 65.1272 69.0936 67.8081 68.7587C68.6459 68.7587 69.4837 68.2562 69.9863 67.7537C70.3215 67.7537 71.1593 66.9162 70.3215 67.0837Z" fill="#49818A"/>
<path d="M95.4554 62.5615C99.9794 81.4887 92.6069 101.923 76.3537 112.978C59.9329 124.033 37.6476 123.195 22.0646 111.303C6.64919 99.5783 -0.388236 78.9762 5.1412 60.2166C10.6706 41.122 28.2643 27.3872 48.0362 26.7172C70.154 25.7122 89.9259 41.2894 95.4554 62.5615C95.958 64.404 99.1417 63.064 98.8065 61.5566C93.6122 41.2894 76.1861 26.0472 55.2413 24.0373C34.464 22.1948 14.1894 33.5846 4.97363 52.1767C-4.2421 70.9364 -0.388235 94.2184 14.3569 109.126C29.1021 123.865 51.8901 127.55 70.8242 119.008C92.6068 109.126 104.336 84.6711 98.8065 61.5566C98.3039 59.7141 95.1202 60.8866 95.4554 62.5615Z" fill="#49818A"/>
<path d="M87.2451 64.5715C90.9314 79.9812 85.2344 96.5634 71.9972 105.776C58.425 115.156 39.9935 114.486 26.9239 104.603C14.1895 95.0559 8.49241 78.1387 12.8489 62.729C17.2055 46.8168 31.7831 35.2595 48.539 34.9246C66.6354 34.4221 82.721 47.1518 87.2451 64.5715C87.7478 66.2464 90.7638 64.739 90.4287 63.399C86.0722 46.4818 71.6621 33.9196 54.236 32.4121C37.145 30.9046 20.2216 40.2845 12.5139 55.6942C4.80615 71.2714 7.82221 90.5335 20.054 102.761C32.2858 115.156 51.3875 118.17 67.138 110.968C85.0668 102.761 94.9528 82.6611 90.4287 63.399C90.0936 61.8915 86.91 63.2315 87.2451 64.5715Z" fill="#49818A"/>
<path d="M46.0257 11.6422C47.0311 16.1646 45.523 21.022 41.6692 23.7019C37.8153 26.3819 32.4534 25.8794 28.7672 23.0319C25.0809 20.1845 23.2377 15.1596 24.5782 10.4697C25.9187 6.11476 29.7725 2.93229 34.2966 2.5973C39.8261 2.5973 44.6853 6.44975 46.0257 11.6422C46.5284 13.4846 49.712 12.1446 49.3769 10.6372C47.8689 4.94226 43.1772 0.754834 37.3127 0.0848462C31.2805 -0.585142 25.2485 2.76481 22.5675 8.29221C19.8866 13.4846 20.8919 20.017 25.0809 24.2044C29.2699 28.5593 35.9722 29.3968 41.3341 26.8844C47.5337 24.0369 51.0525 17.1695 49.5445 10.6372C48.8742 8.79469 45.523 10.1347 46.0257 11.6422Z" fill="#49818A"/>
<path d="M41.1663 12.8149C41.8366 15.3274 40.8312 18.1748 38.8205 19.5148C36.8098 20.8548 33.9613 20.6873 31.783 19.1798C29.6048 17.5048 28.5994 14.6574 29.4372 11.9774C29.7724 10.8049 30.4426 9.79995 31.4479 8.96247C31.783 8.62747 32.2857 8.45999 32.6208 8.29249C33.2911 7.95749 33.9613 7.95749 34.6315 7.78999C37.6476 7.78999 40.3285 9.96745 41.1663 12.8149C41.669 14.6574 44.8526 13.3174 44.3499 11.8099C43.3446 8.12498 40.3285 5.44502 36.6422 5.11003C32.6208 4.77503 28.5994 6.95252 26.7563 10.47C25.0807 13.8199 25.7509 18.0073 28.4319 20.6873C31.2804 23.5347 35.4693 23.8697 38.988 22.3622C43.0094 20.5198 45.3553 15.9973 44.3499 11.8099C44.0148 10.1349 40.6636 11.3074 41.1663 12.8149Z" fill="#49818A"/>
<path d="M40.8304 40.1167C41.5006 42.4617 42.0033 44.9742 42.6735 47.3191C42.8411 47.6541 42.8411 47.9891 42.8411 48.3241C43.0086 48.9941 46.1922 47.6541 45.8571 46.6491C45.1869 44.3042 44.6842 41.7917 44.014 39.4467C44.014 39.1117 43.8464 38.7767 43.8464 38.4418C43.6788 37.7718 40.4952 38.9442 40.8304 40.1167Z" fill="#49818A"/>
<path d="M84.7306 64.906C82.3848 65.576 79.8714 66.0785 77.5255 66.7485C77.1904 66.7485 76.8553 66.9159 76.5202 66.9159C75.8499 67.0834 74.8446 67.5859 74.6771 68.4234C74.5095 69.0934 75.3473 69.4284 75.85 69.2609C78.1958 68.5909 80.7092 68.0884 83.055 67.4184C83.3902 67.4184 83.7252 67.2509 84.0604 67.2509C84.7306 67.0834 85.736 66.5809 85.9035 65.7435C86.2386 65.0735 85.4009 64.7385 84.7306 64.906Z" fill="#49818A"/>
<path d="M59.0945 107.283C58.4242 104.938 57.9216 102.425 57.2513 100.08C57.2513 99.7452 57.0838 99.4102 57.0838 99.0752C57.0838 98.7403 56.5811 98.7402 56.4135 98.7402C56.0784 98.7402 55.5757 98.9078 55.2406 99.0752C54.738 99.4102 53.9001 99.9127 54.0677 100.583C54.7379 102.928 55.2406 105.44 55.9109 107.785C55.9109 108.12 56.0784 108.455 56.0784 108.79C56.0784 109.125 56.5811 109.125 56.7487 109.125C57.0838 109.125 57.5865 108.957 57.9216 108.79C58.5918 108.622 59.262 107.953 59.0945 107.283Z" fill="#49818A"/>
<path d="M15.0266 82.1585C17.3725 81.4885 19.8858 80.986 22.2316 80.316C22.5667 80.316 22.9018 80.1485 23.237 80.1485C23.9072 79.9811 24.9126 79.4785 25.2477 78.8085C25.5828 78.1386 24.5774 78.1386 24.2423 78.3061C21.8965 78.9761 19.3831 79.4786 17.0373 80.1485C16.7022 80.1485 16.3671 80.316 16.032 80.316C15.3618 80.4835 14.3564 80.986 14.0213 81.656C13.6862 82.326 14.524 82.326 15.0266 82.1585Z" fill="#49818A"/>
</svg>
