<svg width="28" height="26" viewBox="0 0 28 26" fill="none" xmlns="http://www.w3.org/2000/svg">
<g clip-path="url(#clip0_2_9)">
<path fill-rule="evenodd" clip-rule="evenodd" d="M-6.78003e-07 5.47379C-6.78003e-07 4.56652 0.350665 3.69621 0.975999 3.05442C1.60133 2.41263 2.44933 2.05273 3.33333 2.05273H24.6667C25.5507 2.05273 26.3987 2.41263 27.024 3.05442C27.6493 3.69621 28 4.56652 28 5.47379V22.579C28 23.4863 27.6493 24.3566 27.024 24.9984C26.3987 25.6402 25.5507 26.0001 24.6667 26.0001H3.33333C2.44933 26.0001 1.60133 25.6402 0.975999 24.9984C0.350665 24.3566 -6.78003e-07 23.4863 -6.78003e-07 22.579V5.47379ZM1.33333 5.47379V22.579C1.33333 23.1237 1.544 23.645 1.91867 24.0309C2.29467 24.4155 2.80267 24.6317 3.33333 24.6317H24.6667C25.1973 24.6317 25.7053 24.4155 26.0813 24.0309C26.456 23.645 26.6667 23.1237 26.6667 22.579V5.47379C26.6667 4.92916 26.456 4.40779 26.0813 4.02189C25.7053 3.63737 25.1973 3.42116 24.6667 3.42116H3.33333C2.80267 3.42116 2.29467 3.63737 1.91867 4.02189C1.544 4.40779 1.33333 4.92916 1.33333 5.47379Z" fill="white"/>
<path fill-rule="evenodd" clip-rule="evenodd" d="M-6.78003e-07 5.47379C-6.78003e-07 4.56652 0.350665 3.69621 0.975999 3.05442C1.60133 2.41263 2.44933 2.05273 3.33333 2.05273H24.6667C25.5507 2.05273 26.3987 2.41263 27.024 3.05442C27.6493 3.69621 28 4.56652 28 5.47379V9.57905C28 9.95673 27.7013 10.2633 27.3333 10.2633H0.666666C0.298666 10.2633 -6.78003e-07 9.95673 -6.78003e-07 9.57905V5.47379ZM1.33333 5.47379V8.89484H26.6667V5.47379C26.6667 4.92916 26.456 4.40779 26.0813 4.02189C25.7053 3.63737 25.1973 3.42116 24.6667 3.42116H3.33333C2.80267 3.42116 2.29467 3.63737 1.91867 4.02189C1.544 4.40779 1.33333 4.92916 1.33333 5.47379Z" fill="white"/>
<path fill-rule="evenodd" clip-rule="evenodd" d="M21.3334 4.78947V0.684211C21.3334 0.306526 21.632 0 22 0C22.368 0 22.6667 0.306526 22.6667 0.684211V4.78947C22.6667 5.16716 22.368 5.47368 22 5.47368C21.632 5.47368 21.3334 5.16716 21.3334 4.78947Z" fill="white"/>
<path fill-rule="evenodd" clip-rule="evenodd" d="M13.3334 4.78947V0.684211C13.3334 0.306526 13.632 0 14 0C14.368 0 14.6667 0.306526 14.6667 0.684211V4.78947C14.6667 5.16716 14.368 5.47368 14 5.47368C13.632 5.47368 13.3334 5.16716 13.3334 4.78947Z" fill="white"/>
<path fill-rule="evenodd" clip-rule="evenodd" d="M5.33335 4.78947V0.684211C5.33335 0.306526 5.63202 0 6.00002 0C6.36802 0 6.66669 0.306526 6.66669 0.684211V4.78947C6.66669 5.16716 6.36802 5.47368 6.00002 5.47368C5.63202 5.47368 5.33335 5.16716 5.33335 4.78947Z" fill="white"/>
</g>
<defs>
<clipPath id="clip0_2_9">
<rect width="28" height="26" fill="white" transform="matrix(-1 0 0 1 28 0)"/>
</clipPath>
</defs>
</svg>
