<svg width="340" height="72" viewBox="0 0 340 72" fill="none" xmlns="http://www.w3.org/2000/svg">
<path d="M83.9995 43.907V23.9734H77.2529V21.5542H93.6425V23.9734H86.8614V43.907H83.9995ZM97.3609 43.907V19.646H100.189V26.2565L100.087 29.6639C101.62 28.1646 103.29 26.938 105.573 26.938C109.083 26.938 110.65 29.1869 110.65 33.4121V43.907H107.822V33.7869C107.822 30.6861 106.868 29.3913 104.687 29.3913C103.017 29.3913 101.825 30.2432 100.189 31.9128V43.907H97.3609ZM122.574 44.3159C118.145 44.3159 114.669 41.1129 114.669 35.6269C114.669 30.2432 118.315 26.938 122.097 26.938C126.322 26.938 128.742 29.9365 128.742 34.7069C128.742 35.3203 128.708 35.8314 128.606 36.3765H117.463C117.701 39.784 119.78 42.0329 122.915 42.0329C124.516 42.0329 125.914 41.5899 127.072 40.8062L128.06 42.6121C126.629 43.6344 124.857 44.3159 122.574 44.3159ZM117.463 34.1958H126.22C126.22 30.9247 124.687 29.1869 122.166 29.1869C119.848 29.1869 117.804 31.0269 117.463 34.1958ZM146.096 44.3159C142.893 44.3159 140.201 43.0551 138.258 40.9766L139.859 39.1025C141.495 40.7722 143.778 41.7944 146.13 41.7944C149.06 41.7944 150.797 40.3292 150.797 38.1825C150.797 35.8995 149.162 35.1839 147.083 34.2639L143.846 32.8328C141.768 31.9469 139.348 30.3794 139.348 27.0742C139.348 23.6668 142.313 21.1453 146.368 21.1453C149.094 21.1453 151.411 22.2698 152.978 23.8372L151.411 25.7453C150.048 24.4505 148.31 23.6668 146.368 23.6668C143.88 23.6668 142.245 24.9275 142.245 26.9038C142.245 29.0505 144.188 29.8684 145.925 30.5839L149.128 31.9809C151.718 33.0713 153.728 34.6388 153.728 37.944C153.728 41.4877 150.797 44.3159 146.096 44.3159ZM162.205 44.3159C158.661 44.3159 157.468 42.067 157.468 38.7617V29.6298H155.015V27.5172L157.604 27.3468L157.946 22.0312H160.296V27.3468H164.794V29.6298H160.296V38.8299C160.296 40.8403 160.978 41.9988 162.852 41.9988C163.466 41.9988 164.079 41.8966 164.76 41.5899L165.339 43.6003C164.453 44.0092 163.329 44.3159 162.205 44.3159ZM171.622 44.3159C168.862 44.3159 166.784 42.6121 166.784 39.6136C166.784 35.9336 169.85 34.1617 176.938 33.378C176.903 31.2994 176.222 29.2891 173.53 29.2891C171.622 29.2891 169.884 30.1409 168.59 30.9928L167.499 29.0846C169.032 28.0624 171.349 26.938 174.008 26.938C178.028 26.938 179.766 29.6298 179.766 33.7187V43.907H177.449L177.176 41.9306H177.074C175.506 43.2596 173.7 44.3159 171.622 44.3159ZM172.406 41.9988C174.008 41.9988 175.336 41.2833 176.938 39.8862V35.3883C171.349 36.0358 169.544 37.2966 169.544 39.4432C169.544 41.2833 170.805 41.9988 172.406 41.9988ZM189.724 44.3159C186.18 44.3159 184.987 42.067 184.987 38.7617V29.6298H182.534V27.5172L185.123 27.3468L185.465 22.0312H187.815V27.3468H192.313V29.6298H187.815V38.8299C187.815 40.8403 188.497 41.9988 190.371 41.9988C190.985 41.9988 191.598 41.8966 192.279 41.5899L192.858 43.6003C191.973 44.0092 190.848 44.3159 189.724 44.3159ZM202.269 44.3159C197.84 44.3159 194.365 41.1129 194.365 35.6269C194.365 30.2432 198.01 26.938 201.793 26.938C206.018 26.938 208.437 29.9365 208.437 34.7069C208.437 35.3203 208.403 35.8314 208.301 36.3765H197.158C197.397 39.784 199.475 42.0329 202.611 42.0329C204.212 42.0329 205.609 41.5899 206.767 40.8062L207.756 42.6121C206.325 43.6344 204.553 44.3159 202.269 44.3159ZM197.158 34.1958H205.916C205.916 30.9247 204.382 29.1869 201.861 29.1869C199.544 29.1869 197.499 31.0269 197.158 34.1958ZM219.555 43.907V21.5542H223.133L227.358 33.5143C227.903 35.0817 228.38 36.5128 228.858 38.1825H228.994C229.505 36.5128 229.914 35.0817 230.459 33.5143L234.684 21.5542H238.262V43.907H235.57V31.572C235.57 29.5957 235.809 26.8357 235.979 24.8935H235.843L234.105 30.1068L229.914 41.6581H227.836L223.678 30.1068L221.906 24.8935H221.77C221.941 26.8357 222.179 29.5957 222.179 31.572V43.907H219.555ZM248.912 44.3159C245.403 44.3159 243.835 42.067 243.835 37.8417V27.3468H246.663V37.4669C246.663 40.5336 247.618 41.8625 249.799 41.8625C251.468 41.8625 252.66 41.0106 254.194 39.0684V27.3468H257.022V43.907H254.705L254.466 41.3173H254.364C252.831 43.1233 251.196 44.3159 248.912 44.3159ZM266.936 44.3159C264.517 44.3159 262.302 43.4299 260.768 41.9306L262.063 40.2951C263.495 41.4877 264.994 42.101 267.038 42.101C269.219 42.101 270.275 40.9766 270.275 39.5455C270.275 37.8417 268.435 37.1262 266.561 36.4447C264.073 35.5587 261.689 34.3662 261.689 31.6402C261.689 28.9824 263.801 26.938 267.413 26.938C269.491 26.938 271.263 27.7217 272.558 28.812L271.263 30.4476C270.104 29.5957 268.913 29.1187 267.447 29.1187C265.334 29.1187 264.415 30.2772 264.415 31.5039C264.415 33.0032 265.845 33.6165 267.924 34.3321C270.514 35.2521 273.001 36.3765 273.001 39.3751C273.001 42.067 270.854 44.3159 266.936 44.3159ZM283.562 44.3159C279.133 44.3159 275.657 41.1129 275.657 35.6269C275.657 30.2432 279.303 26.938 283.085 26.938C287.31 26.938 289.73 29.9365 289.73 34.7069C289.73 35.3203 289.696 35.8314 289.593 36.3765H278.451C278.689 39.784 280.768 42.0329 283.903 42.0329C285.504 42.0329 286.901 41.5899 288.06 40.8062L289.049 42.6121C287.617 43.6344 285.846 44.3159 283.562 44.3159ZM278.451 34.1958H287.208C287.208 30.9247 285.675 29.1869 283.154 29.1869C280.837 29.1869 278.792 31.0269 278.451 34.1958ZM298.626 44.3159C295.116 44.3159 293.549 42.067 293.549 37.8417V27.3468H296.377V37.4669C296.377 40.5336 297.331 41.8625 299.512 41.8625C301.182 41.8625 302.375 41.0106 303.908 39.0684V27.3468H306.736V43.907H304.419L304.181 41.3173H304.078C302.545 43.1233 300.909 44.3159 298.626 44.3159ZM312.322 43.907V27.3468H314.639L314.878 29.732H314.98C316.445 28.1646 318.149 26.938 320.125 26.938C322.681 26.938 324.044 28.1305 324.726 30.0728C326.429 28.2328 328.167 26.938 330.177 26.938C333.585 26.938 335.22 29.1869 335.22 33.4121V43.907H332.392V33.7869C332.392 30.6861 331.404 29.3913 329.326 29.3913C328.031 29.3913 326.701 30.2091 325.168 31.9128V43.907H322.34V33.7869C322.34 30.6861 321.387 29.3913 319.273 29.3913C318.047 29.3913 316.684 30.2091 315.15 31.9128V43.907H312.322Z" fill="black"/>
<path d="M81.2166 51.3525C82.3726 51.3525 83.3731 51.7926 84.2182 52.6727C85.0675 53.5484 85.4922 54.643 85.4922 55.9565C85.4922 57.3094 85.0654 58.4325 84.2117 59.3258C83.358 60.219 82.3244 60.6656 81.1116 60.6656C79.8858 60.6656 78.8543 60.2299 78.0186 59.3586C77.1865 58.4873 76.7705 57.3598 76.7705 55.9762C76.7705 54.562 77.252 53.4083 78.2151 52.5151C79.0515 51.7401 80.052 51.3525 81.2166 51.3525ZM81.0921 51.832C80.2953 51.832 79.6561 52.1275 79.1746 52.7186C78.5743 53.4543 78.2741 54.5313 78.2741 55.95C78.2741 57.4036 78.5851 58.5223 79.207 59.3061C79.6842 59.9015 80.3147 60.1992 81.0986 60.1992C81.935 60.1992 82.6245 59.873 83.1673 59.2207C83.715 58.5683 83.9885 57.5393 83.9885 56.1339C83.9885 54.6102 83.6884 53.4739 83.0888 52.7253C82.6073 52.1298 81.9415 51.832 81.0921 51.832ZM98.7233 52.0422V55.5428H100.346C100.718 55.5428 100.989 55.4617 101.16 55.2998C101.335 55.1334 101.451 54.8072 101.508 54.3212H101.751V57.3357H101.508C101.503 56.9899 101.458 56.7359 101.37 56.5739C101.287 56.4119 101.168 56.2914 101.015 56.2127C100.866 56.1295 100.643 56.0879 100.346 56.0879H98.7233V58.8857C98.7233 59.3367 98.7514 59.6344 98.8083 59.779C98.8522 59.8884 98.9443 59.9825 99.0847 60.0613C99.2769 60.1664 99.4784 60.219 99.6886 60.219H100.01V60.462H96.1882V60.219H96.5035C96.8713 60.219 97.1384 60.1117 97.3046 59.8972C97.4097 59.757 97.4623 59.4199 97.4623 58.8857V53.1324C97.4623 52.6814 97.4335 52.3837 97.3766 52.2392C97.3327 52.1298 97.2435 52.0356 97.1074 51.9568C96.9195 51.8517 96.718 51.7992 96.5035 51.7992H96.1882V51.5562H102.815L102.9 53.5133H102.671C102.556 53.0974 102.423 52.7931 102.27 52.6004C102.121 52.4034 101.935 52.2611 101.711 52.1735C101.492 52.0859 101.151 52.0422 100.687 52.0422H98.7233ZM129.486 56.2914V58.8857C129.486 59.4461 129.548 59.7942 129.671 59.93C129.837 60.1227 130.089 60.219 130.426 60.219H130.768V60.462H126.951V60.219H127.287C127.663 60.219 127.932 60.0964 128.094 59.8512C128.181 59.7154 128.225 59.3936 128.225 58.8857V53.1324C128.225 52.5719 128.166 52.2238 128.048 52.0882C127.878 51.8955 127.624 51.7992 127.287 51.7992H126.951V51.5562H130.216C131.012 51.5562 131.641 51.6394 132.101 51.8057C132.56 51.9677 132.948 52.2436 133.263 52.6333C133.578 53.023 133.736 53.4849 133.736 54.0191C133.736 54.7459 133.495 55.337 133.013 55.7923C132.536 56.2477 131.86 56.4753 130.984 56.4753C130.77 56.4753 130.537 56.46 130.288 56.4294C130.038 56.3988 129.771 56.3528 129.486 56.2914ZM129.486 55.9171C129.719 55.9609 129.925 55.9937 130.104 56.0156C130.283 56.0375 130.437 56.0484 130.564 56.0484C131.019 56.0484 131.411 55.8733 131.739 55.5231C132.072 55.1684 132.238 54.7109 132.238 54.1504C132.238 53.7651 132.16 53.4083 132.002 53.0799C131.844 52.7471 131.621 52.4997 131.332 52.3377C131.043 52.1714 130.715 52.0882 130.347 52.0882C130.123 52.0882 129.837 52.1298 129.486 52.2129V55.9171ZM146.979 52.0422V55.5624H148.937C149.445 55.5624 149.784 55.4859 149.955 55.3326C150.182 55.1312 150.31 54.7765 150.336 54.2686H150.579V57.3686H150.336C150.275 56.9351 150.213 56.6571 150.152 56.5345C150.073 56.3813 149.944 56.2609 149.764 56.1733C149.585 56.0857 149.309 56.0419 148.937 56.0419H146.979V58.9777C146.979 59.3717 146.997 59.6125 147.032 59.7001C147.067 59.7833 147.128 59.8512 147.216 59.9037C147.304 59.9519 147.47 59.976 147.715 59.976H149.226C149.73 59.976 150.095 59.9409 150.323 59.8709C150.55 59.8008 150.769 59.6629 150.979 59.4571C151.251 59.1856 151.529 58.7762 151.814 58.229H152.076L151.308 60.462H144.444V60.219H144.76C144.97 60.219 145.169 60.1686 145.358 60.0679C145.497 59.9978 145.592 59.8928 145.64 59.7527C145.692 59.6125 145.719 59.3258 145.719 58.8923V53.1062C145.719 52.5413 145.662 52.1933 145.548 52.0619C145.39 51.8868 145.127 51.7992 144.76 51.7992H144.444V51.5562H151.308L151.406 53.5068H151.151C151.058 53.0383 150.956 52.7165 150.842 52.5413C150.732 52.3661 150.568 52.2326 150.349 52.1407C150.174 52.075 149.865 52.0422 149.423 52.0422H146.979ZM162.168 51.5562H164.585L170.029 58.2355V53.0995C170.029 52.5523 169.968 52.2107 169.846 52.075C169.684 51.8911 169.427 51.7992 169.077 51.7992H168.768V51.5562H171.868V51.7992H171.553C171.177 51.7992 170.91 51.913 170.752 52.1407C170.655 52.2808 170.607 52.6004 170.607 53.0995V60.6064H170.371L164.499 53.4345V58.9185C164.499 59.4659 164.558 59.8074 164.677 59.9431C164.843 60.127 165.099 60.219 165.445 60.219H165.76V60.462H162.66V60.219H162.969C163.35 60.219 163.619 60.1051 163.777 59.8774C163.873 59.7374 163.921 59.4177 163.921 58.9185V52.7253C163.663 52.4231 163.466 52.2238 163.33 52.1275C163.199 52.0312 163.004 51.9415 162.746 51.8583C162.619 51.8189 162.426 51.7992 162.168 51.7992V51.5562ZM181.842 51.5562H184.258L189.703 58.2355V53.0995C189.703 52.5523 189.641 52.2107 189.519 52.075C189.357 51.8911 189.101 51.7992 188.751 51.7992H188.442V51.5562H191.542V51.7992H191.227C190.85 51.7992 190.583 51.913 190.425 52.1407C190.329 52.2808 190.281 52.6004 190.281 53.0995V60.6064H190.044L184.173 53.4345V58.9185C184.173 59.4659 184.232 59.8074 184.35 59.9431C184.516 60.127 184.773 60.219 185.119 60.219H185.434V60.462H182.334V60.219H182.643C183.024 60.219 183.293 60.1051 183.45 59.8774C183.547 59.7374 183.595 59.4177 183.595 58.9185V52.7253C183.337 52.4231 183.139 52.2238 183.004 52.1275C182.872 52.0312 182.677 51.9415 182.42 51.8583C182.292 51.8189 182.1 51.7992 181.842 51.7992V51.5562ZM207.859 51.3525V54.4328H207.617C207.537 53.8417 207.396 53.371 207.19 53.0208C206.988 52.6705 206.7 52.3924 206.322 52.1866C205.946 51.9808 205.557 51.878 205.153 51.878C204.699 51.878 204.321 52.0181 204.024 52.2983C203.726 52.5742 203.577 52.8894 203.577 53.2441C203.577 53.5155 203.671 53.7629 203.86 53.9862C204.131 54.3146 204.777 54.7525 205.797 55.2998C206.629 55.7463 207.196 56.09 207.499 56.3309C207.804 56.5673 208.039 56.8475 208.201 57.1715C208.367 57.4956 208.451 57.8349 208.451 58.1895C208.451 58.8638 208.188 59.4461 207.663 59.9365C207.141 60.4226 206.469 60.6656 205.647 60.6656C205.388 60.6656 205.145 60.6459 204.917 60.6064C204.781 60.5845 204.499 60.5057 204.07 60.3701C203.645 60.2299 203.376 60.1599 203.262 60.1599C203.152 60.1599 203.065 60.1927 202.999 60.2583C202.938 60.3241 202.892 60.4598 202.862 60.6656H202.618V57.6116H202.862C202.975 58.2509 203.129 58.7303 203.321 59.0499C203.514 59.3652 203.807 59.6279 204.201 59.8381C204.6 60.0482 205.035 60.1532 205.508 60.1532C206.055 60.1532 206.486 60.0088 206.802 59.7198C207.122 59.4309 207.282 59.0893 207.282 58.6952C207.282 58.4764 207.22 58.2552 207.098 58.0319C206.98 57.8086 206.793 57.6007 206.539 57.408C206.368 57.2766 205.902 56.9986 205.14 56.5739C204.379 56.1448 203.836 55.8033 203.512 55.5493C203.192 55.2954 202.949 55.0152 202.782 54.7086C202.616 54.4021 202.533 54.065 202.533 53.6973C202.533 53.058 202.778 52.5084 203.268 52.0487C203.759 51.5846 204.383 51.3525 205.14 51.3525C205.613 51.3525 206.114 51.4686 206.644 51.7006C206.89 51.8101 207.062 51.8648 207.163 51.8648C207.277 51.8648 207.369 51.832 207.439 51.7663C207.514 51.6962 207.573 51.5583 207.617 51.3525H207.859ZM225.543 51.5562H228.649V51.7992H228.479C228.365 51.7992 228.199 51.8496 227.98 51.9503C227.761 52.0509 227.562 52.1954 227.382 52.3837C227.203 52.5719 226.982 52.8785 226.719 53.3032L224.571 56.6855V58.9185C224.571 59.4659 224.632 59.8074 224.755 59.9431C224.922 60.127 225.184 60.219 225.543 60.219H225.832V60.462H222.049V60.219H222.364C222.741 60.219 223.008 60.1051 223.165 59.8774C223.262 59.7374 223.31 59.4177 223.31 58.9185V56.8103L220.867 53.0799C220.578 52.642 220.381 52.3684 220.276 52.2589C220.175 52.1494 219.963 52.0181 219.638 51.8648C219.551 51.821 219.424 51.7992 219.258 51.7992V51.5562H223.067V51.7992H222.87C222.664 51.7992 222.474 51.8473 222.299 51.9436C222.128 52.04 222.043 52.1845 222.043 52.3772C222.043 52.5347 222.176 52.8193 222.443 53.2309L224.302 56.101L226.049 53.3557C226.312 52.9441 226.443 52.6376 226.443 52.4363C226.443 52.3137 226.41 52.2042 226.345 52.1078C226.283 52.0115 226.194 51.9371 226.075 51.8845C225.957 51.8276 225.78 51.7992 225.543 51.7992V51.5562ZM246.518 57.9991L246.734 58.0451L245.972 60.462H239.076V60.219H239.411C239.788 60.219 240.057 60.0964 240.219 59.8512C240.311 59.7111 240.357 59.387 240.357 58.8792V53.1324C240.357 52.5763 240.296 52.2282 240.173 52.0882C240.002 51.8955 239.748 51.7992 239.411 51.7992H239.076V51.5562H243.109V51.7992C242.636 51.7948 242.303 51.8385 242.11 51.9305C241.922 52.0224 241.793 52.1385 241.723 52.2786C241.652 52.4187 241.618 52.7537 241.618 53.2834V58.8792C241.618 59.2426 241.652 59.4921 241.723 59.6279C241.776 59.7198 241.856 59.7877 241.966 59.8314C242.075 59.8753 242.417 59.8972 242.991 59.8972H243.641C244.324 59.8972 244.803 59.8468 245.079 59.7461C245.355 59.6454 245.606 59.4681 245.834 59.2141C246.062 58.9558 246.289 58.5508 246.518 57.9991ZM266.533 51.5562V51.7992C266.217 51.8561 265.978 51.9568 265.816 52.1013C265.585 52.3158 265.379 52.6442 265.199 53.0864L262.093 60.6656H261.85L258.514 52.9879C258.342 52.5939 258.222 52.353 258.152 52.2654C258.043 52.1298 257.907 52.0247 257.745 51.9503C257.587 51.8714 257.373 51.821 257.101 51.7992V51.5562H260.74V51.7992C260.328 51.8385 260.061 51.9086 259.939 52.0093C259.816 52.11 259.754 52.2392 259.754 52.3968C259.754 52.6158 259.855 52.9572 260.057 53.4214L262.323 58.6427L264.424 53.4871C264.63 52.9792 264.733 52.6267 264.733 52.4296C264.733 52.3027 264.669 52.1823 264.543 52.0684C264.416 51.9503 264.201 51.867 263.899 51.8189C263.877 51.8145 263.84 51.8079 263.787 51.7992V51.5562H266.533ZM282.811 57.4802H279.363L278.758 58.8857C278.609 59.2316 278.535 59.49 278.535 59.6607C278.535 59.7965 278.599 59.9169 278.725 60.022C278.857 60.1227 279.137 60.1883 279.566 60.219V60.462H276.762V60.219C277.134 60.1533 277.375 60.0679 277.484 59.9628C277.707 59.7527 277.955 59.3258 278.226 58.6821L281.359 51.3525H281.589L284.689 58.761C284.938 59.3564 285.164 59.7439 285.365 59.9234C285.571 60.0985 285.856 60.1971 286.22 60.219V60.462H282.706V60.219C283.06 60.2015 283.299 60.1423 283.421 60.0416C283.548 59.9409 283.612 59.8183 283.612 59.6739C283.612 59.4812 283.524 59.1769 283.349 58.761L282.811 57.4802ZM282.626 56.9942L281.116 53.3951L279.566 56.9942H282.626ZM296.153 51.5562H298.57L304.014 58.2355V53.0995C304.014 52.5523 303.953 52.2107 303.831 52.075C303.669 51.8911 303.413 51.7992 303.062 51.7992H302.754V51.5562H305.853V51.7992H305.538C305.162 51.7992 304.895 51.913 304.737 52.1407C304.64 52.2808 304.592 52.6004 304.592 53.0995V60.6064H304.356L298.485 53.4345V58.9185C298.485 59.4659 298.544 59.8074 298.662 59.9431C298.828 60.127 299.084 60.219 299.431 60.219H299.746V60.462H296.646V60.219H296.955C297.335 60.219 297.605 60.1051 297.762 59.8774C297.859 59.7374 297.907 59.4177 297.907 58.9185V52.7253C297.648 52.4231 297.451 52.2238 297.315 52.1275C297.184 52.0312 296.989 51.9415 296.731 51.8583C296.604 51.8189 296.411 51.7992 296.153 51.7992V51.5562ZM320.155 60.219V60.462H316.339V60.219H316.654C317.022 60.219 317.289 60.1117 317.456 59.8972C317.561 59.757 317.613 59.4199 317.613 58.8857V53.1324C317.613 52.6814 317.584 52.3837 317.528 52.2392C317.484 52.1298 317.394 52.0356 317.258 51.9568C317.066 51.8517 316.865 51.7992 316.654 51.7992H316.339V51.5562H320.155V51.7992H319.833C319.47 51.7992 319.205 51.9064 319.038 52.121C318.929 52.2611 318.874 52.5982 318.874 53.1324V58.8857C318.874 59.3367 318.902 59.6344 318.959 59.779C319.003 59.8884 319.095 59.9825 319.236 60.0613C319.423 60.1664 319.623 60.219 319.833 60.219H320.155ZM336.59 57.4802H333.143L332.539 58.8857C332.39 59.2316 332.315 59.49 332.315 59.6607C332.315 59.7965 332.378 59.9169 332.506 60.022C332.637 60.1227 332.917 60.1883 333.346 60.219V60.462H330.542V60.219C330.914 60.1533 331.155 60.0679 331.264 59.9628C331.488 59.7527 331.735 59.3258 332.006 58.6821L335.139 51.3525H335.369L338.469 58.761C338.719 59.3564 338.944 59.7439 339.146 59.9234C339.352 60.0985 339.636 60.1971 339.999 60.219V60.462H336.485V60.219C336.84 60.2015 337.079 60.1423 337.202 60.0416C337.328 59.9409 337.392 59.8183 337.392 59.6739C337.392 59.4812 337.304 59.1769 337.13 58.761L336.59 57.4802ZM336.407 56.9942L334.896 53.3951L333.346 56.9942H336.407Z" fill="black"/>
<path d="M15.4755 16.1952L11.5166 6.4781L47.8659 0V9.71715L63.3414 6.83799V24.1129C60.2223 23.0332 52.1127 20.8739 44.6269 20.8739C37.1411 20.8739 31.1908 24.2329 29.1514 25.9124C33.8301 25.4325 44.339 24.4008 48.9456 24.1129C53.5523 23.825 60.4622 24.7127 63.3414 25.1926V28.4317C55.0638 27.7119 41.9637 27.7119 37.0691 27.7119C32.1745 27.7119 24.9527 30.1111 21.9536 31.3108V37.0691C26.0324 35.9894 36.2773 33.8301 44.6269 33.8301C52.9764 33.8301 60.5822 34.3099 63.3414 34.5499V37.429H41.028C35.2696 37.429 26.1523 39.5884 22.3134 40.6681V46.4264C26.0324 45.4667 35.7735 43.5472 44.9868 43.5472C54.2001 43.5472 61.062 44.267 63.3414 44.6269V47.5061H39.2285C32.8943 47.5061 25.3126 49.4255 22.3134 50.3852V56.5034C26.3443 54.488 35.2696 53.9841 39.2285 53.9841H63.3414V64.0612L18.3546 71.9789L0 18.7145L15.4755 16.1952Z" fill="#5D90A3"/>
</svg>
