<svg width="20" height="16" viewBox="0 0 20 16" fill="none" xmlns="http://www.w3.org/2000/svg">
<path d="M18.125 0.5H1.875C0.839844 0.5 0 1.33984 0 2.375V13.625C0 14.6602 0.839844 15.5 1.875 15.5H18.125C19.1602 15.5 20 14.6602 20 13.625V2.375C20 1.33984 19.1602 0.5 18.125 0.5ZM1.875 1.75H18.125C18.4688 1.75 18.75 2.03125 18.75 2.375V3.99219C17.8945 4.71484 16.6719 5.71094 12.8672 8.73047C12.207 9.25391 10.9062 10.5156 10 10.5C9.09375 10.5156 7.78906 9.25391 7.13281 8.73047C3.32813 5.71094 2.10547 4.71484 1.25 3.99219V2.375C1.25 2.03125 1.53125 1.75 1.875 1.75ZM18.125 14.25H1.875C1.53125 14.25 1.25 13.9688 1.25 13.625V5.61719C2.14062 6.34766 3.54687 7.47656 6.35547 9.70703C7.15625 10.3477 8.57031 11.7578 10 11.75C11.4219 11.7617 12.8242 10.3633 13.6445 9.70703C16.4531 7.47656 17.8594 6.34766 18.75 5.61719V13.625C18.75 13.9688 18.4688 14.25 18.125 14.25Z" fill="#FD4C5C"/>
</svg>
